<svg width="39" height="39" viewBox="0 0 39 39" fill="none" xmlns="http://www.w3.org/2000/svg">
<path d="M26.585 22.75C26.715 21.6775 26.8125 20.605 26.8125 19.5C26.8125 18.395 26.715 17.3225 26.585 16.25H32.0775C32.3375 17.29 32.5 18.3787 32.5 19.5C32.5 20.6213 32.3375 21.71 32.0775 22.75M23.7087 31.785C24.6838 29.9812 25.4312 28.0312 25.9513 26H30.745C29.1706 28.7109 26.6729 30.7645 23.7087 31.785ZM23.3025 22.75H15.6975C15.535 21.6775 15.4375 20.605 15.4375 19.5C15.4375 18.395 15.535 17.3062 15.6975 16.25H23.3025C23.4487 17.3062 23.5625 18.395 23.5625 19.5C23.5625 20.605 23.4487 21.6775 23.3025 22.75ZM19.5 32.435C18.1512 30.485 17.0625 28.3237 16.3962 26H22.6038C21.9375 28.3237 20.8487 30.485 19.5 32.435ZM13 13H8.255C9.81279 10.2814 12.3088 8.22452 15.275 7.215C14.3 9.01875 13.5688 10.9688 13 13ZM8.255 26H13C13.5688 28.0312 14.3 29.9812 15.275 31.785C12.3147 30.765 9.82197 28.7108 8.255 26ZM6.9225 22.75C6.6625 21.71 6.5 20.6213 6.5 19.5C6.5 18.3787 6.6625 17.29 6.9225 16.25H12.415C12.285 17.3225 12.1875 18.395 12.1875 19.5C12.1875 20.605 12.285 21.6775 12.415 22.75M19.5 6.54875C20.8487 8.49875 21.9375 10.6762 22.6038 13H16.3962C17.0625 10.6762 18.1512 8.49875 19.5 6.54875ZM30.745 13H25.9513C25.4419 10.9876 24.6888 9.04492 23.7087 7.215C26.6987 8.23875 29.185 10.3025 30.745 13ZM19.5 3.25C10.5137 3.25 3.25 10.5625 3.25 19.5C3.25 23.8098 4.96205 27.943 8.00951 30.9905C9.51847 32.4994 11.3099 33.6964 13.2814 34.513C15.2529 35.3297 17.366 35.75 19.5 35.75C23.8098 35.75 27.943 34.038 30.9905 30.9905C34.038 27.943 35.75 23.8098 35.75 19.5C35.75 17.366 35.3297 15.2529 34.513 13.2814C33.6964 11.3099 32.4994 9.51847 30.9905 8.00951C29.4815 6.50056 27.6901 5.3036 25.7186 4.48696C23.7471 3.67032 21.634 3.25 19.5 3.25Z" fill="#00D073"/>
</svg>
