<svg width="20" height="19" viewBox="0 0 20 19" fill="none" xmlns="http://www.w3.org/2000/svg">
<rect width="20" height="19" rx="5" fill="white"/>
<path d="M4 4.75C4 4.55109 4.07902 4.36032 4.21967 4.21967C4.36032 4.07902 4.55109 4 4.75 4H6.36475C6.54228 4.00008 6.71402 4.06314 6.84943 4.17794C6.98484 4.29275 7.07514 4.45187 7.10425 4.627L7.65925 7.95325C7.68577 8.11166 7.66073 8.27441 7.58782 8.41752C7.51491 8.56064 7.39799 8.67657 7.25425 8.74825L6.09325 9.328C6.50958 10.3597 7.12963 11.297 7.91633 12.0837C8.70304 12.8704 9.64026 13.4904 10.672 13.9067L11.2525 12.7458C11.3241 12.6022 11.44 12.4853 11.5829 12.4124C11.7259 12.3395 11.8885 12.3144 12.0468 12.3407L15.373 12.8958C15.5481 12.9249 15.7072 13.0152 15.8221 13.1506C15.9369 13.286 15.9999 13.4577 16 13.6353V15.25C16 15.4489 15.921 15.6397 15.7803 15.7803C15.6397 15.921 15.4489 16 15.25 16H13.75C8.365 16 4 11.635 4 6.25V4.75Z" fill="black"/>
</svg>
