<svg width="21" height="27" viewBox="0 0 21 27" xmlns="http://www.w3.org/2000/svg">
<path d="M19.6889 15.3307C20.0892 15.7111 20.1053 16.3441 19.7249 16.7444L11.2303 25.6832C11.222 25.692 11.2135 25.7008 11.2048 25.7094C11.1129 25.8008 11.0073 25.8708 10.8945 25.9192C10.775 25.9687 10.6373 25.9988 10.5102 25.9999C10.507 26 10.5032 26 10.5 26C10.5 26 10.5 26 10.5 26C10.3522 26 10.2043 25.9675 10.0678 25.9021L19.6889 15.3307ZM19.6889 15.3307C19.2885 14.9502 18.6556 14.9663 18.2751 15.3667L11.5 22.4961M19.6889 15.3307L11.5 24.9979V23.9477V22.4961M11.5 22.4961V2C11.5 1.44772 11.0523 1 10.5 1M11.5 22.4961L10.5 1M9.5 22.4961L2.72489 15.3667C2.34444 14.9663 1.71148 14.9502 1.31113 15.3307C0.910788 15.7111 0.894662 16.3441 1.27511 16.7444L9.5 22.4961ZM9.5 22.4961V2M9.5 22.4961V2M10.5 1C9.94772 1 9.5 1.44772 9.5 2M10.5 1L9.5 2" stroke="white" stroke-width="2" stroke-linecap="round" stroke-linejoin="round"/>
</svg>
