<svg width="524" height="393" viewBox="0 0 524 393" fill="none" xmlns="http://www.w3.org/2000/svg">
<path d="M131.5 75.5C131.5 34.0787 97.9214 0.5 56.5 0.5H0.666672V56.3333C0.666672 97.7546 34.2453 131.333 75.6667 131.333H131.5V75.5Z" fill="#1D583F" fill-opacity="0.5"/>
<path d="M131.5 196.75C131.5 160.622 160.788 131.333 196.917 131.333C233.045 131.333 262.333 160.622 262.333 196.75C262.333 232.879 233.045 262.167 196.917 262.167H131.5V196.75Z" fill="#1D583F" fill-opacity="0.5"/>
<path d="M262.333 65.9167C262.333 29.788 291.621 0.5 327.75 0.5H393.167V131.333H327.75C291.621 131.333 262.333 102.045 262.333 65.9167Z" fill="#1D583F" fill-opacity="0.5"/>
<path d="M262.333 196.75C262.333 160.622 291.621 131.333 327.75 131.333C363.879 131.333 393.167 160.622 393.167 196.75V262.167H327.75C291.621 262.167 262.333 232.879 262.333 196.75Z" fill="#0B3A27" fill-opacity="0.5"/>
<path d="M393.167 65.9167C393.167 29.788 422.455 0.5 458.583 0.5C494.712 0.5 524 29.788 524 65.9167C524 102.045 494.712 131.333 458.583 131.333C422.455 131.333 393.167 102.045 393.167 65.9167Z" fill="#0B3A27" fill-opacity="0.5"/>
<path d="M393.167 131.333H524V262.167H466.042C425.794 262.167 393.167 229.54 393.167 189.292V131.333Z" fill="#1D583F" fill-opacity="0.5"/>
<path d="M0.666626 196.75C0.666626 160.622 29.9547 131.333 66.0833 131.333C102.212 131.333 131.5 160.622 131.5 196.75C131.5 232.879 102.212 262.167 66.0833 262.167C29.9547 262.167 0.666626 232.879 0.666626 196.75Z" fill="#0B3A27" fill-opacity="0.5"/>
<path d="M131.5 327.583C131.5 291.455 160.788 262.167 196.917 262.167H262.333V327.583C262.333 363.712 233.045 393 196.917 393C160.788 393 131.5 363.712 131.5 327.583Z" fill="#0B3A27" fill-opacity="0.5"/>
<path d="M262.333 327.583C262.333 291.455 291.621 262.167 327.75 262.167C363.879 262.167 393.167 291.455 393.167 327.583C393.167 363.712 363.879 393 327.75 393C291.621 393 262.333 363.712 262.333 327.583Z" fill="#1D583F" fill-opacity="0.5"/>
<path d="M393.167 262.167H451.125C491.373 262.167 524 294.794 524 335.041V393H393.167V262.167Z" fill="#0B3A27" fill-opacity="0.5"/>
<path d="M0.666626 337.167C0.666626 295.745 34.2453 262.167 75.6666 262.167H131.5V393H0.666626V337.167Z" fill="#1D583F" fill-opacity="0.5"/>
<path d="M131.5 0.5H262.333V131.333H206.5C165.079 131.333 131.5 97.7547 131.5 56.3333V0.5Z" fill="#0B3A27" fill-opacity="0.5"/>
</svg>
