<svg width="19" height="14" viewBox="0 0 19 14" fill="none" xmlns="http://www.w3.org/2000/svg">
<path d="M0 2.24209L9.5 7L19 2.24209C18.9648 1.63569 18.6996 1.06569 18.2585 0.648859C17.8175 0.232023 17.234 -0.000111372 16.6277 4.00857e-08H2.37233C1.76598 -0.000111372 1.18254 0.232023 0.741489 0.648859C0.300441 1.06569 0.035168 1.63569 0 2.24209Z" fill="#32D27C"/>
<path d="M19 5L9.5 9.56737L0 5V11.7163C0 12.322 0.250222 12.9028 0.695621 13.3311C1.14102 13.7594 1.74511 14 2.375 14H16.625C17.2549 14 17.859 13.7594 18.3044 13.3311C18.7498 12.9028 19 12.322 19 11.7163V5Z" fill="#32D27C"/>
</svg>
