<svg width="34" height="34" viewBox="0 0 34 34" fill="none" xmlns="http://www.w3.org/2000/svg">
<path d="M10.0002 0.333008H24.0002C29.3335 0.333008 33.6668 4.66634 33.6668 9.99967V23.9997C33.6668 26.5634 32.6484 29.0222 30.8355 30.835C29.0227 32.6479 26.5639 33.6663 24.0002 33.6663H10.0002C4.66683 33.6663 0.333496 29.333 0.333496 23.9997V9.99967C0.333496 7.43591 1.35195 4.97716 3.1648 3.16431C4.97765 1.35146 7.4364 0.333008 10.0002 0.333008ZM9.66683 3.66634C8.07553 3.66634 6.54941 4.29848 5.42419 5.4237C4.29897 6.54892 3.66683 8.07504 3.66683 9.66634V24.333C3.66683 27.6497 6.35016 30.333 9.66683 30.333H24.3335C25.9248 30.333 27.4509 29.7009 28.5761 28.5756C29.7014 27.4504 30.3335 25.9243 30.3335 24.333V9.66634C30.3335 6.34967 27.6502 3.66634 24.3335 3.66634H9.66683ZM25.7502 6.16634C26.3027 6.16634 26.8326 6.38583 27.2233 6.77654C27.614 7.16724 27.8335 7.69714 27.8335 8.24967C27.8335 8.80221 27.614 9.33211 27.2233 9.72281C26.8326 10.1135 26.3027 10.333 25.7502 10.333C25.1976 10.333 24.6677 10.1135 24.277 9.72281C23.8863 9.33211 23.6668 8.80221 23.6668 8.24967C23.6668 7.69714 23.8863 7.16724 24.277 6.77654C24.6677 6.38583 25.1976 6.16634 25.7502 6.16634ZM17.0002 8.66634C19.2103 8.66634 21.3299 9.54431 22.8927 11.1071C24.4555 12.6699 25.3335 14.7895 25.3335 16.9997C25.3335 19.2098 24.4555 21.3294 22.8927 22.8922C21.3299 24.455 19.2103 25.333 17.0002 25.333C14.79 25.333 12.6704 24.455 11.1076 22.8922C9.5448 21.3294 8.66683 19.2098 8.66683 16.9997C8.66683 14.7895 9.5448 12.6699 11.1076 11.1071C12.6704 9.54431 14.79 8.66634 17.0002 8.66634ZM17.0002 11.9997C15.6741 11.9997 14.4023 12.5265 13.4646 13.4641C12.5269 14.4018 12.0002 15.6736 12.0002 16.9997C12.0002 18.3258 12.5269 19.5975 13.4646 20.5352C14.4023 21.4729 15.6741 21.9997 17.0002 21.9997C18.3262 21.9997 19.598 21.4729 20.5357 20.5352C21.4734 19.5975 22.0002 18.3258 22.0002 16.9997C22.0002 15.6736 21.4734 14.4018 20.5357 13.4641C19.598 12.5265 18.3262 11.9997 17.0002 11.9997Z" fill="#00D073"/>
</svg>
