<svg width="12" height="12" viewBox="0 0 12 12" fill="none" xmlns="http://www.w3.org/2000/svg">
<path d="M0 0.75C0 0.551088 0.0790176 0.360322 0.21967 0.21967C0.360322 0.0790176 0.551088 0 0.75 0H2.36475C2.54228 8.17269e-05 2.71402 0.0631355 2.84943 0.177945C2.98484 0.292754 3.07514 0.451874 3.10425 0.627L3.65925 3.95325C3.68577 4.11166 3.66073 4.27441 3.58782 4.41752C3.51491 4.56064 3.39799 4.67657 3.25425 4.74825L2.09325 5.328C2.50958 6.35974 3.12963 7.29696 3.91633 8.08367C4.70304 8.87038 5.64026 9.49042 6.672 9.90675L7.2525 8.74575C7.32414 8.60215 7.43995 8.48532 7.58291 8.41242C7.72588 8.33952 7.88845 8.3144 8.04675 8.34075L11.373 8.89575C11.5481 8.92486 11.7072 9.01516 11.8221 9.15057C11.9369 9.28598 11.9999 9.45772 12 9.63525V11.25C12 11.4489 11.921 11.6397 11.7803 11.7803C11.6397 11.921 11.4489 12 11.25 12H9.75C4.365 12 0 7.635 0 2.25V0.75Z" fill="black"/>
</svg>
