<svg width="42" height="43" viewBox="0 0 42 43" fill="none" xmlns="http://www.w3.org/2000/svg">
<path d="M8.75985 14.6251H36.0551L37.0343 10.7084H12.6765V6.79175H39.5449C39.8425 6.79176 40.1363 6.85963 40.4038 6.9902C40.6713 7.12077 40.9055 7.31061 41.0887 7.54529C41.2718 7.77997 41.399 8.05331 41.4607 8.34453C41.5223 8.63576 41.5168 8.9372 41.4444 9.22596L36.5486 28.8093C36.4425 29.2328 36.198 29.6087 35.8538 29.8773C35.5096 30.1458 35.0856 30.2917 34.649 30.2917H6.79956C6.28018 30.2917 5.78207 30.0854 5.41481 29.7182C5.04755 29.3509 4.84123 28.8528 4.84123 28.3334V4.83341H0.924561V0.916748H6.79956C7.31894 0.916748 7.81705 1.12307 8.18431 1.49033C8.55157 1.85759 8.75789 2.3557 8.75789 2.87508L8.75985 14.6251ZM8.75985 42.0417C7.72109 42.0417 6.72487 41.6291 5.99035 40.8946C5.25583 40.1601 4.84319 39.1638 4.84319 38.1251C4.84319 37.0863 5.25583 36.0901 5.99035 35.3556C6.72487 34.6211 7.72109 34.2084 8.75985 34.2084C9.79862 34.2084 10.7948 34.6211 11.5294 35.3556C12.2639 36.0901 12.6765 37.0863 12.6765 38.1251C12.6765 39.1638 12.2639 40.1601 11.5294 40.8946C10.7948 41.6291 9.79862 42.0417 8.75985 42.0417ZM32.2599 42.0417C31.2211 42.0417 30.2249 41.6291 29.4904 40.8946C28.7558 40.1601 28.3432 39.1638 28.3432 38.1251C28.3432 37.0863 28.7558 36.0901 29.4904 35.3556C30.2249 34.6211 31.2211 34.2084 32.2599 34.2084C33.2986 34.2084 34.2948 34.6211 35.0294 35.3556C35.7639 36.0901 36.1765 37.0863 36.1765 38.1251C36.1765 39.1638 35.7639 40.1601 35.0294 40.8946C34.2948 41.6291 33.2986 42.0417 32.2599 42.0417Z" fill="#00D073"/>
</svg>
