<svg width="41" height="41" viewBox="0 0 41 41" fill="none" xmlns="http://www.w3.org/2000/svg">
<path d="M18.5416 35.1386L8.74996 29.5084C8.12982 29.1494 7.64872 28.6761 7.30667 28.0886C6.96461 27.5011 6.79293 26.8483 6.79163 26.1303V14.8699C6.79163 14.1518 6.96331 13.499 7.30667 12.9115C7.65003 12.324 8.13113 11.8508 8.74996 11.4917L18.5416 5.86154C19.1618 5.50251 19.8145 5.323 20.5 5.323C21.1854 5.323 21.8382 5.50251 22.4583 5.86154L32.25 11.4917C32.8701 11.8508 33.3518 12.324 33.6952 12.9115C34.0386 13.499 34.2096 14.1518 34.2083 14.8699V26.1303C34.2083 26.8483 34.0373 27.5011 33.6952 28.0886C33.3532 28.6761 32.8714 29.1494 32.25 29.5084L22.4583 35.1386C21.8382 35.4977 21.1854 35.6772 20.5 35.6772C19.8145 35.6772 19.1618 35.4977 18.5416 35.1386ZM18.5416 30.6345V21.6261L10.7083 17.073V26.1303L18.5416 30.6345ZM22.4583 30.6345L30.2916 26.1303V17.073L22.4583 21.6261V30.6345ZM0.916626 10.7084V4.83341C0.916626 3.75633 1.30046 2.83461 2.06813 2.06825C2.83579 1.30189 3.75751 0.918054 4.83329 0.916748H10.7083V4.83341H4.83329V10.7084H0.916626ZM10.7083 40.0834H4.83329C3.75621 40.0834 2.83449 39.7002 2.06813 38.9339C1.30176 38.1675 0.917932 37.2451 0.916626 36.1667V30.2917H4.83329V36.1667H10.7083V40.0834ZM30.2916 40.0834V36.1667H36.1666V30.2917H40.0833V36.1667C40.0833 37.2438 39.7001 38.1662 38.9338 38.9339C38.1674 39.7015 37.245 40.0847 36.1666 40.0834H30.2916ZM36.1666 10.7084V4.83341H30.2916V0.916748H36.1666C37.2437 0.916748 38.1661 1.30058 38.9338 2.06825C39.7014 2.83591 40.0846 3.75764 40.0833 4.83341V10.7084H36.1666ZM20.5 18.248L28.2354 13.6949L20.5 9.23966L12.7645 13.6949L20.5 18.248Z" fill="#00D073"/>
</svg>
