<svg width="45" height="37" viewBox="0 0 45 37" fill="none" xmlns="http://www.w3.org/2000/svg">
<path d="M0.958374 36.125V32.2083H44.0417V36.125H0.958374ZM6.83337 30.25C5.75629 30.25 4.83457 29.8668 4.06821 29.1005C3.30185 28.3341 2.91801 27.4117 2.91671 26.3333V4.79167C2.91671 3.71458 3.30054 2.79286 4.06821 2.0265C4.83587 1.26014 5.7576 0.876306 6.83337 0.875H38.1667C39.2438 0.875 40.1662 1.25883 40.9338 2.0265C41.7015 2.79417 42.0847 3.71589 42.0834 4.79167V26.3333C42.0834 27.4104 41.7002 28.3328 40.9338 29.1005C40.1675 29.8681 39.2451 30.2513 38.1667 30.25H6.83337ZM6.83337 26.3333H38.1667V4.79167H6.83337V26.3333Z" fill="#00CF78"/>
</svg>
