<svg width="37" height="37" viewBox="0 0 37 37" fill="none" xmlns="http://www.w3.org/2000/svg">
<path d="M5.58226 18.5835L11.308 24.3046C11.5251 24.5214 11.6472 24.8156 11.6474 25.1224C11.6477 25.4292 11.526 25.7236 11.3092 25.9407C11.0924 26.1578 10.7982 26.2799 10.4914 26.2801C10.1845 26.2803 9.89019 26.1587 9.67308 25.9419L3.13101 19.3998C2.91425 19.183 2.79248 18.8889 2.79248 18.5823C2.79248 18.2757 2.91425 17.9817 3.13101 17.7649L9.67076 11.2251C9.77743 11.1147 9.90501 11.0266 10.0461 10.966C10.1871 10.9054 10.3389 10.8735 10.4924 10.8722C10.6459 10.8708 10.7982 10.9001 10.9403 10.9582C11.0824 11.0164 11.2115 11.1022 11.32 11.2108C11.4286 11.3193 11.5145 11.4484 11.5726 11.5905C11.6307 11.7326 11.66 11.8849 11.6586 12.0384C11.6573 12.1919 11.6254 12.3437 11.5648 12.4847C11.5042 12.6258 11.4161 12.7534 11.3057 12.86L5.58226 18.5835ZM25.8583 24.3046L31.5817 18.5835L25.8583 12.86C25.6476 12.642 25.5311 12.3499 25.5337 12.0467C25.5364 11.7436 25.658 11.4536 25.8723 11.2392C26.0867 11.0248 26.3767 10.9032 26.6799 10.9006C26.9831 10.8979 27.2751 11.0145 27.4932 11.2251L34.0353 17.7649C34.252 17.9817 34.3738 18.2757 34.3738 18.5823C34.3738 18.8889 34.252 19.183 34.0353 19.3998L27.4932 25.9419C27.3857 26.0492 27.2581 26.1343 27.1177 26.1924C26.9773 26.2504 26.8268 26.2802 26.6749 26.2801C26.523 26.28 26.3726 26.25 26.2323 26.1917C26.0919 26.1335 25.9645 26.0482 25.8571 25.9407C25.7498 25.8332 25.6646 25.7056 25.6066 25.5652C25.5485 25.4248 25.5187 25.2743 25.5188 25.1224C25.5189 24.9705 25.549 24.8201 25.6072 24.6798C25.6655 24.5394 25.7508 24.412 25.8583 24.3046ZM19.7926 5.79535C19.8609 5.50446 20.0391 5.25129 20.2899 5.08892C20.5408 4.92656 20.8447 4.8676 21.1381 4.92442C21.4314 4.98124 21.6914 5.14941 21.8635 5.39369C22.0356 5.63796 22.1064 5.93938 22.0611 6.23473L17.2072 31.2051C17.1389 31.496 16.9607 31.7492 16.7098 31.9115C16.459 32.0739 16.155 32.1329 15.8617 32.076C15.5683 32.0192 15.3084 31.851 15.1363 31.6068C14.9642 31.3625 14.8934 31.0611 14.9386 30.7657L19.7926 5.79535Z" fill="#00D073"/>
</svg>
