<svg width="37" height="37" viewBox="0 0 37 37" fill="none" xmlns="http://www.w3.org/2000/svg">
<path fill-rule="evenodd" clip-rule="evenodd" d="M4.35631 18.5H8.09331C8.39996 18.5 8.69406 18.6218 8.9109 18.8387C9.12774 19.0555 9.24956 19.3496 9.24956 19.6562V28.9062C9.24956 29.2129 9.12774 29.507 8.9109 29.7238C8.69406 29.9407 8.39996 30.0625 8.09331 30.0625H3.46831C3.19768 30.0626 2.9356 29.9678 2.72771 29.7945C2.51981 29.6213 2.37927 29.3806 2.33056 29.1144C1.53737 24.7553 1.34312 18.1647 3.42668 12.6031C4.47424 9.805 6.11843 7.215 8.59974 5.33031C11.0926 3.43406 14.3486 2.3125 18.4996 2.3125C22.6528 2.3125 25.9088 3.43638 28.4017 5.33031C30.883 7.21731 32.5272 9.80269 33.5747 12.6031C35.6583 18.1647 35.4617 24.7553 34.6709 29.1144C34.6222 29.3806 34.4816 29.6213 34.2737 29.7945C34.0658 29.9678 33.8037 30.0626 33.5331 30.0625H31.3455C27.9253 34.0816 22.7592 34.9372 19.6119 34.6875H17.3433C17.0366 34.6875 16.7426 34.5657 16.5257 34.3488C16.3089 34.132 16.1871 33.8379 16.1871 33.5312V31.2188C16.1871 30.9121 16.3089 30.618 16.5257 30.4012C16.7426 30.1843 17.0366 30.0625 17.3433 30.0625H19.6558C19.9625 30.0625 20.2566 30.1843 20.4734 30.4012C20.6902 30.618 20.8121 30.9121 20.8121 31.2188V32.4143C23.0413 32.3866 25.9319 31.7321 28.2514 29.859C28.0967 29.7528 27.9702 29.6106 27.8828 29.4446C27.7954 29.2786 27.7496 29.0939 27.7496 28.9062V19.6562C27.7496 19.3496 27.8714 19.0555 28.0882 18.8387C28.3051 18.6218 28.5991 18.5 28.9058 18.5H32.6405C32.4092 16.761 32.0138 15.0312 31.4079 13.4125C30.4714 10.915 29.0492 8.72969 26.998 7.17106C24.9607 5.62169 22.2134 4.625 18.4996 4.625C14.7857 4.625 12.0407 5.61937 9.99881 7.17106C7.94762 8.72969 6.53006 10.9127 5.59118 13.4148C4.98848 15.0577 4.5742 16.7637 4.35631 18.5Z" fill="#00D073"/>
</svg>
