<svg width="139" height="139" viewBox="0 0 139 139" fill="none" xmlns="http://www.w3.org/2000/svg">
<path d="M4.64969 0.363235C3.23895 0.823883 0.820533 3.29988 0.388674 4.7682C-0.129558 6.49564 -0.129558 131.677 0.388674 133.405C0.849324 134.988 3.23895 137.378 4.82243 137.839C5.74373 138.098 20.427 138.184 69.1983 138.184C140.455 138.184 134.035 138.414 136.309 135.881C137 135.132 137.72 133.981 137.893 133.347C138.382 131.706 138.382 6.46684 137.893 4.82578C137.72 4.19238 137 3.04076 136.309 2.29221C134.035 -0.241364 140.484 -0.0110474 69.0255 0.017746C23.7091 0.0465393 5.36945 0.132904 4.64969 0.363235ZM132.912 5.31522L133.632 6.0062V16.8315V27.628H69.1407H4.64969V16.8315V6.0062L5.36945 5.31522L6.06043 4.59546H69.1407H132.221L132.912 5.31522ZM133.632 82.1862V132.167L132.912 132.858C132.221 133.549 132.106 133.578 127.73 133.578C125.282 133.578 123.267 133.491 123.267 133.347C123.267 133.232 123.469 131.965 123.699 130.554C126.808 111.927 119.409 92.1478 104.697 79.7966C86.012 64.0769 59.064 62.4934 38.7666 75.9099C30.2158 81.5816 24.0258 88.6353 19.4481 97.9923C14.5537 108.011 12.7686 119.873 14.5537 130.554C14.8128 131.965 15.0143 133.232 15.0143 133.347C15.0143 133.491 12.999 133.578 10.5518 133.578C6.17559 133.578 6.06043 133.549 5.36945 132.858L4.64969 132.167V82.1862V32.2345H69.1407H133.632V82.1862ZM66.8375 83.0499V94.4222H57.4805C51.4057 94.4222 48.1235 94.3071 48.1235 94.1343C48.1235 93.6449 50.1677 88.6353 51.2329 86.5048C54.3135 80.3148 58.7473 75.1613 62.778 73.1172C64.2463 72.3974 65.9449 71.7352 66.492 71.7064C66.7511 71.6776 66.8375 74.1248 66.8375 83.0499ZM74.87 72.8293C80.3691 75.3916 85.4938 81.9847 89.1214 91.1689C89.6972 92.6372 90.1579 93.9616 90.1579 94.1343C90.1579 94.3071 86.8757 94.4222 80.8009 94.4222H71.444V83.0211V71.6201L72.2501 71.7928C72.682 71.908 73.8624 72.3686 74.87 72.8293ZM53.6801 74.6143C50.1677 78.3571 46.1082 85.4971 44.0353 91.6008L43.0852 94.4222H34.9086H26.7609L27.2503 93.6161C29.8703 89.5854 35.2541 84.0864 39.8031 80.8331C42.7397 78.7026 48.8145 75.5356 52.0103 74.4127C54.6302 73.4914 54.7454 73.5202 53.6801 74.6143ZM87.0485 74.7006C90.7913 76.169 95.3402 78.5874 98.4784 80.8331C103.027 84.0576 108.411 89.5566 111.031 93.6161L111.521 94.4222H103.373H95.1962L94.2461 91.6008C92.1732 85.4971 88.1137 78.3571 84.6013 74.6143C84.1118 74.1248 83.8815 73.693 84.0543 73.693C84.2558 73.693 85.6089 74.1536 87.0485 74.7006ZM41.6744 99.95C40.3789 106.37 39.8031 110.487 39.3424 117.224L39.1409 119.758H28.805H18.4404L18.5844 118.808C18.6707 118.318 18.8147 117.052 18.9011 116.015C19.3041 111.725 21.0028 105.679 22.9893 101.246L24.0258 99.0287H32.9509H41.876L41.6744 99.95ZM66.8375 109.393V119.758H55.3212C48.9873 119.758 43.805 119.672 43.805 119.528C43.805 119.413 43.9489 117.57 44.0929 115.439C44.5247 109.825 45.4172 103.837 46.4249 100.094L46.7128 99.0287H56.7607H66.8375V109.393ZM91.8565 100.094C92.2884 101.677 93.2385 106.889 93.6127 109.393C93.8431 111.092 94.4765 118.462 94.4765 119.528C94.4765 119.672 89.2942 119.758 82.9602 119.758H71.444V109.393V99.0287H81.5207H91.5686L91.8565 100.094ZM115.292 101.246C117.279 105.679 118.977 111.725 119.38 116.015C119.467 117.052 119.611 118.318 119.697 118.808L119.841 119.758H109.448C101.357 119.758 99.083 119.672 99.083 119.384C99.083 115.986 97.9889 106.917 97.0388 102.224C96.7509 100.756 96.4918 99.4318 96.4918 99.2879C96.4918 99.1439 100.379 99.0287 105.388 99.0287H114.256L115.292 101.246ZM39.3136 126.293C39.4 127.388 39.5439 129.46 39.6591 130.9L39.8318 133.578H29.8991C24.4289 133.578 19.8799 133.491 19.8224 133.347C19.6496 133.088 18.8435 127.906 18.6419 125.862L18.498 124.364H28.805H39.1409L39.3136 126.293ZM66.8375 128.971V133.578H55.6379H44.4383L44.2656 130.756C44.1504 129.23 44.0065 127.157 43.9201 126.15L43.7474 124.364H55.2924H66.8375V128.971ZM94.3613 126.006C94.2749 126.927 94.131 129 94.0158 130.612L93.8431 133.578H82.6435H71.444V128.971V124.364H82.989H94.534L94.3613 126.006ZM119.639 125.862C119.438 127.906 118.632 133.088 118.459 133.347C118.401 133.491 113.853 133.578 108.382 133.578H98.4496L98.6223 130.756C98.7375 129.23 98.8814 127.157 98.9678 126.15L99.1405 124.364H109.476H119.783L119.639 125.862Z" fill="#00cf77"/>
<path d="M13.8628 9.57655C13.3158 9.74929 12.1929 10.5554 11.4156 11.3616C9.37147 13.3769 8.79565 15.5362 9.60179 18.2425C10.0624 19.826 12.4521 22.2156 14.0355 22.6763C16.7419 23.4824 18.9012 22.9066 20.9165 20.8625C23.738 18.0698 23.8244 14.471 21.1468 11.5055C19.2754 9.43259 16.5979 8.71283 13.8628 9.57655ZM17.7495 14.5285C19.1891 15.9393 18.1814 18.4153 16.1661 18.4153C14.9856 18.4153 13.8628 17.2924 13.8628 16.112C13.8628 14.9316 14.9856 13.8088 16.1661 13.8088C16.7131 13.8088 17.3177 14.0679 17.7495 14.5285Z" fill="#00cf77"/>
<path d="M29.9856 9.57655C29.4386 9.74929 28.3158 10.5554 27.5384 11.3616C25.4943 13.3769 24.9185 15.5362 25.7246 18.2425C26.1852 19.826 28.5749 22.2156 30.1584 22.6763C32.8647 23.4824 35.024 22.9066 37.0393 20.8625C39.8608 18.0698 39.9472 14.471 37.2696 11.5055C35.3982 9.43259 32.7207 8.71283 29.9856 9.57655ZM33.8723 14.5285C35.3119 15.9393 34.3042 18.4153 32.2889 18.4153C31.1084 18.4153 29.9856 17.2924 29.9856 16.112C29.9856 14.9316 31.1084 13.8088 32.2889 13.8088C32.8359 13.8088 33.4405 14.0679 33.8723 14.5285Z" fill="#00cf77"/>
<path d="M46.1082 9.57626C44.6974 10.0369 42.279 12.5129 41.8472 13.9812C41.041 16.6875 41.6168 18.8468 43.661 20.8622C45.1293 22.3593 46.5976 23.0215 48.4114 23.0215C50.2252 23.0215 51.6936 22.3593 53.1619 20.8622C55.9834 18.0695 56.0697 14.4707 53.3922 11.5052C51.5208 9.43231 48.8433 8.71254 46.1082 9.57626ZM49.9949 14.5282C51.4344 15.939 50.4268 18.415 48.4114 18.415C47.231 18.415 46.1082 17.2921 46.1082 16.1117C46.1082 14.9313 47.231 13.8085 48.4114 13.8085C48.9584 13.8085 49.563 14.0676 49.9949 14.5282Z" fill="#00cf77"/>
<path d="M60.6475 9.92175C59.9277 10.6127 59.9277 10.6703 59.9277 16.1117C59.9277 21.5532 59.9277 21.6107 60.6475 22.3017L61.3385 23.0215H94.4765H127.615L128.305 22.3017C129.025 21.6107 129.025 21.5532 129.025 16.1117C129.025 10.6703 129.025 10.6127 128.305 9.92175L127.615 9.20198H94.4765H61.3385L60.6475 9.92175ZM124.419 16.1117V18.415H94.4765H64.5342V16.1117V13.8085H94.4765H124.419V16.1117Z" fill="#00cf77"/>
<path d="M92.461 42.1671C92.0004 42.6566 91.7989 43.2036 91.8276 43.837C91.8852 44.9886 94.9658 63.6449 95.2249 64.3071C95.4841 64.9981 96.9524 65.6603 97.7297 65.4875C98.104 65.3724 99.2556 64.4799 100.263 63.4434L102.077 61.6008L108.152 67.6468C113.651 73.1171 114.313 73.6929 115.206 73.6929C116.041 73.6929 116.588 73.261 119.726 70.1516C123.526 66.4088 124.275 65.4012 123.987 64.3935C123.872 64.048 121.108 61.0826 117.854 57.8004L111.895 51.812L113.852 49.8542C115.407 48.2995 115.781 47.7237 115.781 47.004C115.781 45.0174 115.724 44.9886 104.668 43.146C99.1405 42.2247 94.2748 41.4474 93.8718 41.4474C93.4687 41.4474 92.8353 41.7641 92.461 42.1671ZM103.056 47.5222C106.021 48.0116 108.497 48.4723 108.555 48.5299C108.641 48.6162 108.238 49.1345 107.662 49.7391C106.424 51.0634 106.223 51.5817 106.597 52.6181C106.741 53.05 109.476 55.9866 112.643 59.1536L118.373 64.9117L116.789 66.4952L115.206 68.0499L109.217 62.0902C103.776 56.6776 103.142 56.1306 102.25 56.1306C101.473 56.1306 100.983 56.3897 100.033 57.3398C99.342 58.002 98.795 58.4338 98.795 58.2899C98.795 58.1171 98.3631 55.4396 97.8161 52.3014C97.0387 47.6661 96.9524 46.6297 97.2691 46.6297C97.4994 46.6297 100.091 47.0327 103.056 47.5222Z" fill="#00cf77"/>
</svg>
