<svg width="257" height="66" viewBox="0 0 257 66" fill="none" xmlns="http://www.w3.org/2000/svg">
<path fill-rule="evenodd" clip-rule="evenodd" d="M173.152 24.7542H176.13C177 24.7542 177.706 25.4598 177.706 26.3301C177.706 31.051 173.863 34.8696 169.142 34.8397L159.944 34.7813L150.206 34.8431C145.783 34.8712 142.183 31.2937 142.183 26.8709V24.6434C142.183 23.5039 142.926 22.4978 144.015 22.1629C141.657 21.773 139.927 19.7338 139.927 17.3435V14.2823C139.927 10.7324 142.805 7.85459 146.355 7.85459H167.605C175.208 7.85459 181.371 14.0176 181.371 21.6201C181.371 22.9777 180.27 24.0782 178.912 24.0782H177.706C175.681 24.0782 174.04 22.4373 174.04 20.4132V20.155C174.04 19.0887 173 18.3329 171.986 18.6627L151.057 25.4703C150.304 25.7151 149.795 26.4166 149.795 27.2081C149.795 28.2173 150.613 29.0355 151.622 29.0355H168.87C169.546 29.0355 170.094 28.4878 170.094 27.8122C170.094 26.1233 171.463 24.7542 173.152 24.7542ZM149.062 12.8118H168.933C170.074 12.8118 170.325 14.4146 169.239 14.7638L154.045 19.6501C152.387 20.1833 150.574 20.1381 148.94 19.5378C147.351 18.9545 146.271 17.4331 146.271 15.7411C146.194 14.1466 147.466 12.8118 149.062 12.8118Z" fill="white"/>
<path d="M223.597 31.2365L188.577 31.1294V37.3848L225.562 37.4784C229.956 37.4895 233.523 33.9308 233.523 29.5371V28.9954C233.523 26.3646 231.468 24.3525 229.051 24.173C232.212 23.3403 234.559 20.4878 234.616 17.0677L234.633 16.0027C234.556 11.4505 230.857 7.79338 226.305 7.76781L188.577 7.55593V13.9555H223.407C225.164 13.9555 226.587 15.3791 226.587 17.1353C226.587 18.8952 225.158 20.3203 223.398 20.3151L188.438 20.2109V26.9333H223.603C224.792 26.9333 225.755 27.8966 225.755 29.0849C225.755 30.2758 224.788 31.2402 223.597 31.2365Z" fill="white"/>
<path d="M119.605 30.9994H86.8091C86.8091 34.5888 89.7189 37.4985 93.3083 37.4985H118.112C126.336 37.4985 133.004 30.8309 133.004 22.606C133.004 14.4102 126.382 7.75476 118.186 7.71358L93.3082 7.58858C89.7241 7.57057 86.8091 10.471 86.8091 14.0551H119.605C122.366 14.0551 124.605 16.2937 124.605 19.0551V25.9994C124.605 28.7608 122.366 30.9994 119.605 30.9994Z" fill="white"/>
<path d="M67.0388 49.1001C67.0218 48.887 66.9419 48.7208 66.7991 48.6015C66.6585 48.4822 66.4444 48.4225 66.1567 48.4225C65.9735 48.4225 65.8233 48.4449 65.7061 48.4897C65.591 48.5323 65.5058 48.5909 65.4504 48.6654C65.395 48.74 65.3662 48.8252 65.3641 48.9211C65.3598 49 65.3737 49.0713 65.4057 49.1353C65.4397 49.197 65.493 49.2535 65.5655 49.3046C65.6379 49.3536 65.7306 49.3984 65.8435 49.4389C65.9564 49.4794 66.0907 49.5156 66.2462 49.5475L66.7831 49.6626C67.1454 49.7393 67.4554 49.8405 67.7132 49.9662C67.971 50.0919 68.1819 50.24 68.346 50.4105C68.5101 50.5788 68.6304 50.7684 68.7071 50.9794C68.786 51.1903 68.8265 51.4204 68.8286 51.6697C68.8265 52.1001 68.7189 52.4644 68.5058 52.7627C68.2927 53.061 67.988 53.288 67.5917 53.4435C67.1976 53.599 66.7235 53.6768 66.1695 53.6768C65.6006 53.6768 65.1042 53.5926 64.6802 53.4243C64.2583 53.256 63.9302 52.9971 63.6958 52.6477C63.4635 52.2961 63.3464 51.8465 63.3442 51.299H65.0317C65.0424 51.4992 65.0924 51.6676 65.1819 51.8039C65.2714 51.9403 65.3971 52.0436 65.5591 52.1139C65.7231 52.1843 65.9181 52.2194 66.1439 52.2194C66.3336 52.2194 66.4923 52.196 66.6201 52.1491C66.748 52.1022 66.8449 52.0372 66.911 51.9541C66.977 51.871 67.0111 51.7762 67.0133 51.6697C67.0111 51.5696 66.9781 51.4822 66.9142 51.4076C66.8524 51.3309 66.7501 51.2627 66.6074 51.2031C66.4646 51.1413 66.2718 51.0838 66.0289 51.0305L65.3769 50.8899C64.7973 50.7642 64.3403 50.5543 64.0058 50.2603C63.6734 49.9641 63.5083 49.5603 63.5104 49.049C63.5083 48.6335 63.6191 48.2702 63.8428 47.9591C64.0687 47.6459 64.3808 47.4019 64.7792 47.2272C65.1798 47.0525 65.639 46.9652 66.1567 46.9652C66.6851 46.9652 67.1422 47.0536 67.5278 47.2304C67.9135 47.4073 68.2107 47.6566 68.4195 47.9783C68.6304 48.2979 68.737 48.6718 68.7391 49.1001H67.0388ZM78.9055 50.3274C78.9055 51.0561 78.7638 51.6708 78.4804 52.1715C78.197 52.6701 77.8146 53.0483 77.333 53.3061C76.8515 53.5617 76.3146 53.6896 75.7222 53.6896C75.1256 53.6896 74.5866 53.5607 74.105 53.3029C73.6256 53.0429 73.2442 52.6637 72.9609 52.1651C72.6796 51.6644 72.539 51.0518 72.539 50.3274C72.539 49.5987 72.6796 48.985 72.9609 48.4865C73.2442 47.9858 73.6256 47.6076 74.105 47.3519C74.5866 47.0941 75.1256 46.9652 75.7222 46.9652C76.3146 46.9652 76.8515 47.0941 77.333 47.3519C77.8146 47.6076 78.197 47.9858 78.4804 48.4865C78.7638 48.985 78.9055 49.5987 78.9055 50.3274ZM77.0773 50.3274C77.0773 49.9353 77.0251 49.6051 76.9207 49.3366C76.8185 49.066 76.6661 48.8615 76.4637 48.723C76.2634 48.5823 76.0163 48.512 75.7222 48.512C75.4282 48.512 75.18 48.5823 74.9776 48.723C74.7773 48.8615 74.6249 49.066 74.5205 49.3366C74.4182 49.6051 74.3671 49.9353 74.3671 50.3274C74.3671 50.7194 74.4182 51.0507 74.5205 51.3213C74.6249 51.5898 74.7773 51.7943 74.9776 51.935C75.18 52.0735 75.4282 52.1427 75.7222 52.1427C76.0163 52.1427 76.2634 52.0735 76.4637 51.935C76.6661 51.7943 76.8185 51.5898 76.9207 51.3213C77.0251 51.0507 77.0773 50.7194 77.0773 50.3274ZM82.7876 53.6001V47.0546H87.3899V48.4865H84.5646V49.6115H87.1087V51.0433H84.5646V53.6001H82.7876ZM90.9245 48.4865V47.0546H96.6134V48.4865H94.6447V53.6001H92.8933V48.4865H90.9245ZM102.004 53.6001L100.074 47.0546H102.055L102.95 51.0816H103.001L104.062 47.0546H105.622L106.683 51.0944H106.734L107.629 47.0546H109.611L107.68 53.6001H105.98L104.868 49.9438H104.817L103.704 53.6001H102.004ZM114.182 53.6001H112.264L114.424 47.0546H116.853L119.014 53.6001H117.096L115.665 48.8572H115.613L114.182 53.6001ZM113.824 51.0177H117.429V52.3473H113.824V51.0177ZM122.704 53.6001V47.0546H125.53C126.015 47.0546 126.441 47.1431 126.805 47.3199C127.169 47.4968 127.453 47.7514 127.655 48.0838C127.857 48.4161 127.959 48.8146 127.959 49.2791C127.959 49.7478 127.854 50.1431 127.645 50.4648C127.439 50.7865 127.148 51.0294 126.773 51.1935C126.4 51.3576 125.964 51.4396 125.466 51.4396H123.778V50.0589H125.108C125.317 50.0589 125.495 50.0333 125.642 49.9822C125.791 49.9289 125.905 49.8448 125.984 49.7297C126.064 49.6147 126.105 49.4644 126.105 49.2791C126.105 49.0916 126.064 48.9392 125.984 48.822C125.905 48.7027 125.791 48.6154 125.642 48.56C125.495 48.5024 125.317 48.4737 125.108 48.4737H124.481V53.6001H122.704ZM126.54 50.5958L128.176 53.6001H126.246L124.648 50.5958H126.54ZM131.776 53.6001V47.0546H136.493V48.4865H133.553V49.6115H136.251V51.0433H133.553V52.1683H136.481V53.6001H131.776ZM143.963 49.1001C143.946 48.887 143.866 48.7208 143.723 48.6015C143.583 48.4822 143.369 48.4225 143.081 48.4225C142.898 48.4225 142.748 48.4449 142.63 48.4897C142.515 48.5323 142.43 48.5909 142.375 48.6654C142.319 48.74 142.291 48.8252 142.288 48.9211C142.284 49 142.298 49.0713 142.33 49.1353C142.364 49.197 142.417 49.2535 142.49 49.3046C142.562 49.3536 142.655 49.3984 142.768 49.4389C142.881 49.4794 143.015 49.5156 143.171 49.5475L143.707 49.6626C144.07 49.7393 144.38 49.8405 144.638 49.9662C144.895 50.0919 145.106 50.24 145.27 50.4105C145.434 50.5788 145.555 50.7684 145.631 50.9794C145.71 51.1903 145.751 51.4204 145.753 51.6697C145.751 52.1001 145.643 52.4644 145.43 52.7627C145.217 53.061 144.912 53.288 144.516 53.4435C144.122 53.599 143.648 53.6768 143.094 53.6768C142.525 53.6768 142.028 53.5926 141.604 53.4243C141.183 53.256 140.854 52.9971 140.62 52.6477C140.388 52.2961 140.271 51.8465 140.269 51.299H141.956C141.967 51.4992 142.017 51.6676 142.106 51.8039C142.196 51.9403 142.321 52.0436 142.483 52.1139C142.647 52.1843 142.842 52.2194 143.068 52.2194C143.258 52.2194 143.417 52.196 143.544 52.1491C143.672 52.1022 143.769 52.0372 143.835 51.9541C143.901 51.871 143.935 51.7762 143.938 51.6697C143.935 51.5696 143.902 51.4822 143.839 51.4076C143.777 51.3309 143.674 51.2627 143.532 51.2031C143.389 51.1413 143.196 51.0838 142.953 51.0305L142.301 50.8899C141.722 50.7642 141.265 50.5543 140.93 50.2603C140.598 49.9641 140.433 49.5603 140.435 49.049C140.433 48.6335 140.543 48.2702 140.767 47.9591C140.993 47.6459 141.305 47.4019 141.704 47.2272C142.104 47.0525 142.563 46.9652 143.081 46.9652C143.609 46.9652 144.066 47.0536 144.452 47.2304C144.838 47.4073 145.135 47.6566 145.344 47.9783C145.555 48.2979 145.661 48.6718 145.663 49.1001H143.963ZM156.042 53.6001H154.125L156.285 47.0546H158.714L160.875 53.6001H158.957L157.525 48.8572H157.474L156.042 53.6001ZM155.684 51.0177H159.289V52.3473H155.684V51.0177ZM170.228 47.0546V53.6001H168.745L166.38 50.1612H166.342V53.6001H164.565V47.0546H166.073L168.4 50.4808H168.451V47.0546H170.228ZM176.647 53.6001H174.129V47.0546H176.622C177.295 47.0546 177.877 47.1857 178.367 47.4478C178.859 47.7077 179.238 48.0827 179.505 48.5728C179.773 49.0607 179.907 49.6456 179.907 50.3274C179.907 51.0092 179.774 51.5951 179.508 52.0852C179.241 52.5731 178.864 52.9481 178.376 53.2102C177.888 53.4701 177.312 53.6001 176.647 53.6001ZM175.906 52.0916H176.583C176.907 52.0916 177.183 52.0394 177.411 51.935C177.641 51.8306 177.816 51.6505 177.935 51.3948C178.057 51.1392 178.117 50.7833 178.117 50.3274C178.117 49.8714 178.056 49.5156 177.932 49.2599C177.811 49.0042 177.632 48.8242 177.395 48.7198C177.161 48.6154 176.873 48.5632 176.532 48.5632H175.906V52.0916ZM188.642 53.6001V47.0546H191.48C191.979 47.0546 192.398 47.1218 192.737 47.256C193.077 47.3902 193.334 47.5799 193.507 47.8249C193.681 48.0699 193.769 48.3586 193.769 48.691C193.769 48.9318 193.716 49.1512 193.609 49.3494C193.505 49.5475 193.358 49.7137 193.168 49.848C192.978 49.9801 192.757 50.0717 192.503 50.1228V50.1867C192.784 50.1974 193.04 50.2688 193.27 50.4009C193.5 50.5309 193.684 50.7109 193.82 50.941C193.956 51.169 194.025 51.4375 194.025 51.7464C194.025 52.1044 193.931 52.4229 193.743 52.702C193.558 52.9811 193.294 53.2006 192.951 53.3604C192.608 53.5202 192.199 53.6001 191.723 53.6001H188.642ZM190.419 52.1811H191.25C191.549 52.1811 191.772 52.1257 191.922 52.0149C192.071 51.9019 192.145 51.7358 192.145 51.5163C192.145 51.3629 192.11 51.2329 192.04 51.1264C191.969 51.0198 191.869 50.9389 191.739 50.8835C191.612 50.8281 191.457 50.8004 191.276 50.8004H190.419V52.1811ZM190.419 49.7009H191.148C191.304 49.7009 191.441 49.6764 191.56 49.6274C191.68 49.5784 191.772 49.5081 191.838 49.4165C191.907 49.3228 191.941 49.2088 191.941 49.0745C191.941 48.8721 191.868 48.7176 191.723 48.6111C191.578 48.5024 191.395 48.4481 191.174 48.4481H190.419V49.7009ZM201.588 47.0546H203.365V51.2478C203.365 51.7464 203.245 52.1779 203.007 52.5422C202.77 52.9044 202.44 53.1846 202.016 53.3828C201.592 53.5788 201.1 53.6768 200.539 53.6768C199.975 53.6768 199.48 53.5788 199.056 53.3828C198.632 53.1846 198.302 52.9044 198.066 52.5422C197.831 52.1779 197.714 51.7464 197.714 51.2478V47.0546H199.491V51.0944C199.491 51.2968 199.536 51.4779 199.625 51.6377C199.715 51.7954 199.838 51.919 199.996 52.0085C200.156 52.098 200.337 52.1427 200.539 52.1427C200.744 52.1427 200.925 52.098 201.083 52.0085C201.24 51.919 201.364 51.7954 201.453 51.6377C201.543 51.4779 201.588 51.2968 201.588 51.0944V47.0546ZM210.798 49.1001C210.781 48.887 210.701 48.7208 210.558 48.6015C210.417 48.4822 210.203 48.4225 209.916 48.4225C209.732 48.4225 209.582 48.4449 209.465 48.4897C209.35 48.5323 209.265 48.5909 209.209 48.6654C209.154 48.74 209.125 48.8252 209.123 48.9211C209.119 49 209.133 49.0713 209.164 49.1353C209.199 49.197 209.252 49.2535 209.324 49.3046C209.397 49.3536 209.489 49.3984 209.602 49.4389C209.715 49.4794 209.849 49.5156 210.005 49.5475L210.542 49.6626C210.904 49.7393 211.214 49.8405 211.472 49.9662C211.73 50.0919 211.941 50.24 212.105 50.4105C212.269 50.5788 212.389 50.7684 212.466 50.9794C212.545 51.1903 212.585 51.4204 212.587 51.6697C212.585 52.1001 212.478 52.4644 212.265 52.7627C212.052 53.061 211.747 53.288 211.351 53.4435C210.956 53.599 210.482 53.6768 209.928 53.6768C209.359 53.6768 208.863 53.5926 208.439 53.4243C208.017 53.256 207.689 52.9971 207.455 52.6477C207.222 52.2961 207.105 51.8465 207.103 51.299H208.791C208.801 51.4992 208.851 51.6676 208.941 51.8039C209.03 51.9403 209.156 52.0436 209.318 52.1139C209.482 52.1843 209.677 52.2194 209.903 52.2194C210.092 52.2194 210.251 52.196 210.379 52.1491C210.507 52.1022 210.604 52.0372 210.67 51.9541C210.736 51.871 210.77 51.7762 210.772 51.6697C210.77 51.5696 210.737 51.4822 210.673 51.4076C210.611 51.3309 210.509 51.2627 210.366 51.2031C210.223 51.1413 210.031 51.0838 209.788 51.0305L209.136 50.8899C208.556 50.7642 208.099 50.5543 207.765 50.2603C207.432 49.9641 207.267 49.5603 207.269 49.049C207.267 48.6335 207.378 48.2702 207.602 47.9591C207.827 47.6459 208.14 47.4019 208.538 47.2272C208.939 47.0525 209.398 46.9652 209.916 46.9652C210.444 46.9652 210.901 47.0536 211.287 47.2304C211.672 47.4073 211.97 47.6566 212.178 47.9783C212.389 48.2979 212.496 48.6718 212.498 49.1001H210.798ZM218.1 47.0546V53.6001H216.323V47.0546H218.1ZM227.666 47.0546V53.6001H226.183L223.818 50.1612H223.78V53.6001H222.003V47.0546H223.511L225.838 50.4808H225.889V47.0546H227.666ZM231.566 53.6001V47.0546H236.284V48.4865H233.343V49.6115H236.041V51.0433H233.343V52.1683H236.271V53.6001H231.566ZM243.753 49.1001C243.736 48.887 243.657 48.7208 243.514 48.6015C243.373 48.4822 243.159 48.4225 242.871 48.4225C242.688 48.4225 242.538 48.4449 242.421 48.4897C242.306 48.5323 242.22 48.5909 242.165 48.6654C242.11 48.74 242.081 48.8252 242.079 48.9211C242.074 49 242.088 49.0713 242.12 49.1353C242.154 49.197 242.208 49.2535 242.28 49.3046C242.353 49.3536 242.445 49.3984 242.558 49.4389C242.671 49.4794 242.805 49.5156 242.961 49.5475L243.498 49.6626C243.86 49.7393 244.17 49.8405 244.428 49.9662C244.686 50.0919 244.897 50.24 245.061 50.4105C245.225 50.5788 245.345 50.7684 245.422 50.9794C245.501 51.1903 245.541 51.4204 245.543 51.6697C245.541 52.1001 245.434 52.4644 245.22 52.7627C245.007 53.061 244.703 53.288 244.306 53.4435C243.912 53.599 243.438 53.6768 242.884 53.6768C242.315 53.6768 241.819 53.5926 241.395 53.4243C240.973 53.256 240.645 52.9971 240.41 52.6477C240.178 52.2961 240.061 51.8465 240.059 51.299H241.746C241.757 51.4992 241.807 51.6676 241.897 51.8039C241.986 51.9403 242.112 52.0436 242.274 52.1139C242.438 52.1843 242.633 52.2194 242.859 52.2194C243.048 52.2194 243.207 52.196 243.335 52.1491C243.463 52.1022 243.56 52.0372 243.626 51.9541C243.692 51.871 243.726 51.7762 243.728 51.6697C243.726 51.5696 243.693 51.4822 243.629 51.4076C243.567 51.3309 243.465 51.2627 243.322 51.2031C243.179 51.1413 242.986 51.0838 242.744 51.0305L242.092 50.8899C241.512 50.7642 241.055 50.5543 240.72 50.2603C240.388 49.9641 240.223 49.5603 240.225 49.049C240.223 48.6335 240.334 48.2702 240.557 47.9591C240.783 47.6459 241.095 47.4019 241.494 47.2272C241.894 47.0525 242.354 46.9652 242.871 46.9652C243.4 46.9652 243.857 47.0536 244.242 47.2304C244.628 47.4073 244.925 47.6566 245.134 47.9783C245.345 48.2979 245.452 48.6718 245.454 49.1001H243.753ZM252.808 49.1001C252.791 48.887 252.711 48.7208 252.568 48.6015C252.427 48.4822 252.213 48.4225 251.926 48.4225C251.742 48.4225 251.592 48.4449 251.475 48.4897C251.36 48.5323 251.275 48.5909 251.219 48.6654C251.164 48.74 251.135 48.8252 251.133 48.9211C251.129 49 251.142 49.0713 251.174 49.1353C251.209 49.197 251.262 49.2535 251.334 49.3046C251.407 49.3536 251.499 49.3984 251.612 49.4389C251.725 49.4794 251.859 49.5156 252.015 49.5475L252.552 49.6626C252.914 49.7393 253.224 49.8405 253.482 49.9662C253.74 50.0919 253.951 50.24 254.115 50.4105C254.279 50.5788 254.399 50.7684 254.476 50.9794C254.555 51.1903 254.595 51.4204 254.597 51.6697C254.595 52.1001 254.488 52.4644 254.275 52.7627C254.062 53.061 253.757 53.288 253.361 53.4435C252.966 53.599 252.492 53.6768 251.938 53.6768C251.369 53.6768 250.873 53.5926 250.449 53.4243C250.027 53.256 249.699 52.9971 249.465 52.6477C249.232 52.2961 249.115 51.8465 249.113 51.299H250.801C250.811 51.4992 250.861 51.6676 250.951 51.8039C251.04 51.9403 251.166 52.0436 251.328 52.1139C251.492 52.1843 251.687 52.2194 251.913 52.2194C252.102 52.2194 252.261 52.196 252.389 52.1491C252.517 52.1022 252.614 52.0372 252.68 51.9541C252.746 51.871 252.78 51.7762 252.782 51.6697C252.78 51.5696 252.747 51.4822 252.683 51.4076C252.621 51.3309 252.519 51.2627 252.376 51.2031C252.233 51.1413 252.041 51.0838 251.798 51.0305L251.146 50.8899C250.566 50.7642 250.109 50.5543 249.775 50.2603C249.442 49.9641 249.277 49.5603 249.279 49.049C249.277 48.6335 249.388 48.2702 249.612 47.9591C249.837 47.6459 250.15 47.4019 250.548 47.2272C250.949 47.0525 251.408 46.9652 251.926 46.9652C252.454 46.9652 252.911 47.0536 253.297 47.2304C253.682 47.4073 253.979 47.6566 254.188 47.9783C254.399 48.2979 254.506 48.6718 254.508 49.1001H252.808Z" fill="white"/>
<path d="M33 4.34869L27.6904 0.734375L13.6677 10.5447C10.3549 12.8165 3.21198 17.7526 1.14261 19.3223C-0.926764 20.8919 0.280369 23.0743 1.14261 23.9693L27.8266 42.4539L32.7277 38.9429C25.0583 33.6419 9.55622 22.916 8.90274 22.4203C8.24925 21.9246 8.44893 21.3188 8.63045 21.0778L33 4.34869Z" fill="#D9D9D9"/>
<path d="M36 12.7937L41.3938 9.07812C45.4891 11.6644 54.2791 17.3398 56.6764 19.3505C59.0736 21.3613 57.6752 23.9039 56.6764 24.9238L41.5437 34.8684L36.1498 31.1528C39.9954 28.5665 47.8664 23.2628 48.5856 22.7382C49.3048 22.2137 49.085 21.7183 48.8853 21.5361L36 12.7937Z" fill="#D9D9D9"/>
</svg>
