<svg width="257" height="64" viewBox="0 0 257 64" fill="none" xmlns="http://www.w3.org/2000/svg">
<path fill-rule="evenodd" clip-rule="evenodd" d="M173.152 22.8655H176.13C177 22.8655 177.706 23.5711 177.706 24.4414C177.706 29.1623 173.863 32.9809 169.142 32.951L159.944 32.8927L150.206 32.9544C145.783 32.9825 142.183 29.405 142.183 24.9823V22.7547C142.183 21.6153 142.926 20.6091 144.015 20.2743C141.657 19.8843 139.927 17.8451 139.927 15.4548V12.3937C139.927 8.84373 142.805 5.96592 146.355 5.96592H167.605C175.208 5.96592 181.371 12.129 181.371 19.7314C181.371 21.089 180.27 22.1896 178.912 22.1896H177.706C175.681 22.1896 174.04 20.5487 174.04 18.5245V18.2664C174.04 17.2 173 16.4442 171.986 16.774L151.057 23.5816C150.304 23.8265 149.795 24.528 149.795 25.3194C149.795 26.3286 150.613 27.1468 151.622 27.1468H168.87C169.546 27.1468 170.094 26.5991 170.094 25.9236C170.094 24.2347 171.463 22.8655 173.152 22.8655ZM149.062 10.9231H168.933C170.074 10.9231 170.325 12.526 169.239 12.8751L154.045 17.7615C152.387 18.2947 150.574 18.2494 148.94 17.6491C147.351 17.0658 146.271 15.5444 146.271 13.8524C146.194 12.2579 147.466 10.9231 149.062 10.9231Z" fill="white"/>
<path d="M223.597 29.3479L188.577 29.2407V35.4961L225.562 35.5897C229.956 35.6008 233.524 32.0422 233.524 27.6484V27.1067C233.524 24.4759 231.469 22.4638 229.051 22.2844C232.213 21.4516 234.56 18.5991 234.616 15.179L234.633 14.114C234.556 9.56185 230.858 5.90471 226.305 5.87914L188.577 5.66725V12.0668H223.408C225.164 12.0668 226.587 13.4905 226.587 15.2466C226.587 17.0065 225.158 18.4317 223.398 18.4264L188.438 18.3222V25.0446H223.604C224.792 25.0446 225.755 26.0079 225.755 27.1962C225.755 28.3871 224.788 29.3515 223.597 29.3479Z" fill="white"/>
<path d="M119.605 29.1107H86.8091C86.8091 32.7001 89.7189 35.6099 93.3083 35.6099H118.112C126.336 35.6099 133.004 28.9422 133.004 20.7173C133.004 12.5216 126.382 5.86609 118.186 5.82491L93.3082 5.69991C89.7241 5.6819 86.8091 8.58232 86.8091 12.1664H119.605C122.366 12.1664 124.605 14.405 124.605 17.1664V24.1107C124.605 26.8721 122.366 29.1107 119.605 29.1107Z" fill="white"/>
<path d="M71.5747 47.2117C71.5576 46.9986 71.4777 46.8324 71.335 46.7131C71.1944 46.5938 70.9802 46.5341 70.6926 46.5341C70.5093 46.5341 70.3591 46.5565 70.2419 46.6012C70.1269 46.6438 70.0417 46.7024 69.9863 46.777C69.9309 46.8516 69.9021 46.9368 69.9 47.0327C69.8957 47.1115 69.9096 47.1829 69.9415 47.2468C69.9756 47.3086 70.0289 47.3651 70.1013 47.4162C70.1738 47.4652 70.2664 47.51 70.3794 47.5504C70.4923 47.5909 70.6265 47.6272 70.7821 47.6591L71.319 47.7742C71.6812 47.8509 71.9912 47.9521 72.249 48.0778C72.5069 48.2035 72.7178 48.3516 72.8819 48.522C73.0459 48.6904 73.1663 48.88 73.243 49.0909C73.3218 49.3019 73.3623 49.532 73.3645 49.7813C73.3623 50.2117 73.2547 50.576 73.0417 50.8743C72.8286 51.1726 72.5239 51.3995 72.1276 51.5551C71.7334 51.7106 71.2593 51.7884 70.7054 51.7884C70.1365 51.7884 69.64 51.7042 69.216 51.5359C68.7941 51.3676 68.466 51.1087 68.2316 50.7593C67.9994 50.4077 67.8822 49.9581 67.8801 49.4105H69.5676C69.5782 49.6108 69.6283 49.7791 69.7178 49.9155C69.8073 50.0519 69.933 50.1552 70.0949 50.2255C70.259 50.2958 70.4539 50.331 70.6798 50.331C70.8694 50.331 71.0282 50.3076 71.156 50.2607C71.2838 50.2138 71.3808 50.1488 71.4468 50.0657C71.5129 49.9826 71.547 49.8878 71.5491 49.7813C71.547 49.6811 71.514 49.5938 71.45 49.5192C71.3882 49.4425 71.286 49.3743 71.1432 49.3147C71.0005 49.2529 70.8076 49.1953 70.5647 49.1421L69.9127 49.0014C69.3332 48.8757 68.8762 48.6659 68.5417 48.3718C68.2093 48.0757 68.0441 47.6719 68.0463 47.1605C68.0441 46.7451 68.1549 46.3818 68.3787 46.0707C68.6045 45.7575 68.9167 45.5135 69.3151 45.3388C69.7157 45.1641 70.1748 45.0767 70.6926 45.0767C71.221 45.0767 71.678 45.1651 72.0637 45.342C72.4493 45.5188 72.7466 45.7681 72.9554 46.0899C73.1663 46.4095 73.2728 46.7834 73.275 47.2117H71.5747ZM83.4413 48.4389C83.4413 49.1676 83.2996 49.7823 83.0163 50.283C82.7329 50.7816 82.3504 51.1598 81.8689 51.4176C81.3873 51.6733 80.8504 51.8012 80.2581 51.8012C79.6615 51.8012 79.1224 51.6723 78.6409 51.4144C78.1615 51.1545 77.7801 50.7752 77.4967 50.2767C77.2155 49.7759 77.0748 49.1634 77.0748 48.4389C77.0748 47.7102 77.2155 47.0966 77.4967 46.598C77.7801 46.0973 78.1615 45.7191 78.6409 45.4634C79.1224 45.2056 79.6615 45.0767 80.2581 45.0767C80.8504 45.0767 81.3873 45.2056 81.8689 45.4634C82.3504 45.7191 82.7329 46.0973 83.0163 46.598C83.2996 47.0966 83.4413 47.7102 83.4413 48.4389ZM81.6132 48.4389C81.6132 48.0469 81.561 47.7166 81.4566 47.4482C81.3543 47.1776 81.202 46.973 80.9996 46.8345C80.7993 46.6939 80.5521 46.6236 80.2581 46.6236C79.964 46.6236 79.7158 46.6939 79.5134 46.8345C79.3131 46.973 79.1608 47.1776 79.0564 47.4482C78.9541 47.7166 78.903 48.0469 78.903 48.4389C78.903 48.831 78.9541 49.1623 79.0564 49.4329C79.1608 49.7014 79.3131 49.9059 79.5134 50.0465C79.7158 50.185 79.964 50.2543 80.2581 50.2543C80.5521 50.2543 80.7993 50.185 80.9996 50.0465C81.202 49.9059 81.3543 49.7014 81.4566 49.4329C81.561 49.1623 81.6132 48.831 81.6132 48.4389ZM87.3235 51.7117V45.1662H91.9258V46.598H89.1005V47.723H91.6445V49.1549H89.1005V51.7117H87.3235ZM95.4604 46.598V45.1662H101.149V46.598H99.1806V51.7117H97.4291V46.598H95.4604ZM106.54 51.7117L104.61 45.1662H106.591L107.486 49.1932H107.537L108.598 45.1662H110.158L111.219 49.206H111.27L112.165 45.1662H114.147L112.216 51.7117H110.516L109.404 48.0554H109.352L108.24 51.7117H106.54ZM118.717 51.7117H116.8L118.96 45.1662H121.389L123.55 51.7117H121.632L120.2 46.9688H120.149L118.717 51.7117ZM118.359 49.1293H121.965V50.4588H118.359V49.1293ZM127.24 51.7117V45.1662H130.066C130.551 45.1662 130.976 45.2546 131.341 45.4315C131.705 45.6083 131.988 45.8629 132.191 46.1953C132.393 46.5277 132.495 46.9262 132.495 47.3906C132.495 47.8594 132.39 48.2546 132.181 48.5764C131.975 48.8981 131.684 49.141 131.309 49.3051C130.936 49.4691 130.5 49.5512 130.002 49.5512H128.314V48.1705H129.644C129.852 48.1705 130.03 48.1449 130.177 48.0938C130.327 48.0405 130.441 47.9563 130.519 47.8413C130.6 47.7262 130.641 47.576 130.641 47.3906C130.641 47.2031 130.6 47.0508 130.519 46.9336C130.441 46.8143 130.327 46.7269 130.177 46.6715C130.03 46.614 129.852 46.5852 129.644 46.5852H129.017V51.7117H127.24ZM131.075 48.7074L132.712 51.7117H130.781L129.183 48.7074H131.075ZM136.312 51.7117V45.1662H141.029V46.598H138.089V47.723H140.786V49.1549H138.089V50.2799H141.017V51.7117H136.312ZM148.499 47.2117C148.482 46.9986 148.402 46.8324 148.259 46.7131C148.119 46.5938 147.905 46.5341 147.617 46.5341C147.434 46.5341 147.283 46.5565 147.166 46.6012C147.051 46.6438 146.966 46.7024 146.911 46.777C146.855 46.8516 146.826 46.9368 146.824 47.0327C146.82 47.1115 146.834 47.1829 146.866 47.2468C146.9 47.3086 146.953 47.3651 147.026 47.4162C147.098 47.4652 147.191 47.51 147.304 47.5504C147.417 47.5909 147.551 47.6272 147.706 47.6591L148.243 47.7742C148.606 47.8509 148.916 47.9521 149.173 48.0778C149.431 48.2035 149.642 48.3516 149.806 48.522C149.97 48.6904 150.091 48.88 150.167 49.0909C150.246 49.3019 150.287 49.532 150.289 49.7813C150.287 50.2117 150.179 50.576 149.966 50.8743C149.753 51.1726 149.448 51.3995 149.052 51.5551C148.658 51.7106 148.184 51.7884 147.63 51.7884C147.061 51.7884 146.564 51.7042 146.14 51.5359C145.718 51.3676 145.39 51.1087 145.156 50.7593C144.924 50.4077 144.807 49.9581 144.804 49.4105H146.492C146.503 49.6108 146.553 49.7791 146.642 49.9155C146.732 50.0519 146.857 50.1552 147.019 50.2255C147.183 50.2958 147.378 50.331 147.604 50.331C147.794 50.331 147.952 50.3076 148.08 50.2607C148.208 50.2138 148.305 50.1488 148.371 50.0657C148.437 49.9826 148.471 49.8878 148.473 49.7813C148.471 49.6811 148.438 49.5938 148.374 49.5192C148.313 49.4425 148.21 49.3743 148.068 49.3147C147.925 49.2529 147.732 49.1953 147.489 49.1421L146.837 49.0014C146.258 48.8757 145.801 48.6659 145.466 48.3718C145.134 48.0757 144.968 47.6719 144.971 47.1605C144.968 46.7451 145.079 46.3818 145.303 46.0707C145.529 45.7575 145.841 45.5135 146.239 45.3388C146.64 45.1641 147.099 45.0767 147.617 45.0767C148.145 45.0767 148.602 45.1651 148.988 45.342C149.374 45.5188 149.671 45.7681 149.88 46.0899C150.091 46.4095 150.197 46.7834 150.199 47.2117H148.499ZM160.578 51.7117H158.66L160.821 45.1662H163.25L165.41 51.7117H163.493L162.061 46.9688H162.01L160.578 51.7117ZM160.22 49.1293H163.825V50.4588H160.22V49.1293ZM174.764 45.1662V51.7117H173.281L170.916 48.2727H170.878V51.7117H169.101V45.1662H170.609L172.936 48.5924H172.987V45.1662H174.764ZM181.183 51.7117H178.665V45.1662H181.158C181.831 45.1662 182.413 45.2973 182.903 45.5593C183.395 45.8193 183.774 46.1943 184.04 46.6843C184.309 47.1723 184.443 47.7571 184.443 48.4389C184.443 49.1208 184.31 49.7067 184.044 50.1968C183.777 50.6847 183.4 51.0597 182.912 51.3218C182.424 51.5817 181.848 51.7117 181.183 51.7117ZM180.442 50.2031H181.119C181.443 50.2031 181.719 50.1509 181.947 50.0465C182.177 49.9421 182.352 49.7621 182.471 49.5064C182.593 49.2507 182.653 48.8949 182.653 48.4389C182.653 47.983 182.592 47.6272 182.468 47.3715C182.347 47.1158 182.168 46.9357 181.931 46.8313C181.697 46.7269 181.409 46.6747 181.068 46.6747H180.442V50.2031ZM197.052 45.1662H198.829V49.3594C198.829 49.858 198.71 50.2894 198.471 50.6538C198.234 51.016 197.904 51.2962 197.48 51.4943C197.056 51.6904 196.564 51.7884 196.004 51.7884C195.439 51.7884 194.945 51.6904 194.521 51.4943C194.097 51.2962 193.766 51.016 193.53 50.6538C193.295 50.2894 193.178 49.858 193.178 49.3594V45.1662H194.955V49.206C194.955 49.4084 195 49.5895 195.089 49.7493C195.179 49.907 195.303 50.0306 195.46 50.1201C195.62 50.2095 195.801 50.2543 196.004 50.2543C196.208 50.2543 196.389 50.2095 196.547 50.1201C196.705 50.0306 196.828 49.907 196.918 49.7493C197.007 49.5895 197.052 49.4084 197.052 49.206V45.1662ZM206.262 47.2117C206.245 46.9986 206.165 46.8324 206.022 46.7131C205.881 46.5938 205.667 46.5341 205.38 46.5341C205.196 46.5341 205.046 46.5565 204.929 46.6012C204.814 46.6438 204.729 46.7024 204.673 46.777C204.618 46.8516 204.589 46.9368 204.587 47.0327C204.583 47.1115 204.597 47.1829 204.629 47.2468C204.663 47.3086 204.716 47.3651 204.788 47.4162C204.861 47.4652 204.954 47.51 205.066 47.5504C205.179 47.5909 205.314 47.6272 205.469 47.6591L206.006 47.7742C206.368 47.8509 206.678 47.9521 206.936 48.0778C207.194 48.2035 207.405 48.3516 207.569 48.522C207.733 48.6904 207.853 48.88 207.93 49.0909C208.009 49.3019 208.049 49.532 208.052 49.7813C208.049 50.2117 207.942 50.576 207.729 50.8743C207.516 51.1726 207.211 51.3995 206.815 51.5551C206.421 51.7106 205.946 51.7884 205.392 51.7884C204.824 51.7884 204.327 51.7042 203.903 51.5359C203.481 51.3676 203.153 51.1087 202.919 50.7593C202.686 50.4077 202.569 49.9581 202.567 49.4105H204.255C204.265 49.6108 204.315 49.7791 204.405 49.9155C204.494 50.0519 204.62 50.1552 204.782 50.2255C204.946 50.2958 205.141 50.331 205.367 50.331C205.557 50.331 205.715 50.3076 205.843 50.2607C205.971 50.2138 206.068 50.1488 206.134 50.0657C206.2 49.9826 206.234 49.8878 206.236 49.7813C206.234 49.6811 206.201 49.5938 206.137 49.5192C206.075 49.4425 205.973 49.3743 205.83 49.3147C205.688 49.2529 205.495 49.1953 205.252 49.1421L204.6 49.0014C204.02 48.8757 203.563 48.6659 203.229 48.3718C202.896 48.0757 202.731 47.6719 202.733 47.1605C202.731 46.7451 202.842 46.3818 203.066 46.0707C203.292 45.7575 203.604 45.5135 204.002 45.3388C204.403 45.1641 204.862 45.0767 205.38 45.0767C205.908 45.0767 206.365 45.1651 206.751 45.342C207.136 45.5188 207.434 45.7681 207.642 46.0899C207.853 46.4095 207.96 46.7834 207.962 47.2117H206.262ZM213.564 45.1662V51.7117H211.788V45.1662H213.564ZM223.13 45.1662V51.7117H221.647L219.282 48.2727H219.244V51.7117H217.467V45.1662H218.975L221.302 48.5924H221.353V45.1662H223.13ZM227.031 51.7117V45.1662H231.748V46.598H228.808V47.723H231.505V49.1549H228.808V50.2799H231.735V51.7117H227.031ZM239.218 47.2117C239.201 46.9986 239.121 46.8324 238.978 46.7131C238.837 46.5938 238.623 46.5341 238.336 46.5341C238.152 46.5341 238.002 46.5565 237.885 46.6012C237.77 46.6438 237.685 46.7024 237.629 46.777C237.574 46.8516 237.545 46.9368 237.543 47.0327C237.539 47.1115 237.552 47.1829 237.584 47.2468C237.619 47.3086 237.672 47.3651 237.744 47.4162C237.817 47.4652 237.909 47.51 238.022 47.5504C238.135 47.5909 238.269 47.6272 238.425 47.6591L238.962 47.7742C239.324 47.8509 239.634 47.9521 239.892 48.0778C240.15 48.2035 240.361 48.3516 240.525 48.522C240.689 48.6904 240.809 48.88 240.886 49.0909C240.965 49.3019 241.005 49.532 241.007 49.7813C241.005 50.2117 240.898 50.576 240.685 50.8743C240.472 51.1726 240.167 51.3995 239.771 51.5551C239.376 51.7106 238.902 51.7884 238.348 51.7884C237.779 51.7884 237.283 51.7042 236.859 51.5359C236.437 51.3676 236.109 51.1087 235.875 50.7593C235.642 50.4077 235.525 49.9581 235.523 49.4105H237.211C237.221 49.6108 237.271 49.7791 237.361 49.9155C237.45 50.0519 237.576 50.1552 237.738 50.2255C237.902 50.2958 238.097 50.331 238.323 50.331C238.512 50.331 238.671 50.3076 238.799 50.2607C238.927 50.2138 239.024 50.1488 239.09 50.0657C239.156 49.9826 239.19 49.8878 239.192 49.7813C239.19 49.6811 239.157 49.5938 239.093 49.5192C239.031 49.4425 238.929 49.3743 238.786 49.3147C238.643 49.2529 238.451 49.1953 238.208 49.1421L237.556 49.0014C236.976 48.8757 236.519 48.6659 236.185 48.3718C235.852 48.0757 235.687 47.6719 235.689 47.1605C235.687 46.7451 235.798 46.3818 236.022 46.0707C236.247 45.7575 236.56 45.5135 236.958 45.3388C237.359 45.1641 237.818 45.0767 238.336 45.0767C238.864 45.0767 239.321 45.1651 239.707 45.342C240.092 45.5188 240.389 45.7681 240.598 46.0899C240.809 46.4095 240.916 46.7834 240.918 47.2117H239.218ZM248.272 47.2117C248.255 46.9986 248.175 46.8324 248.032 46.7131C247.891 46.5938 247.677 46.5341 247.39 46.5341C247.206 46.5341 247.056 46.5565 246.939 46.6012C246.824 46.6438 246.739 46.7024 246.683 46.777C246.628 46.8516 246.599 46.9368 246.597 47.0327C246.593 47.1115 246.607 47.1829 246.639 47.2468C246.673 47.3086 246.726 47.3651 246.798 47.4162C246.871 47.4652 246.964 47.51 247.076 47.5504C247.189 47.5909 247.324 47.6272 247.479 47.6591L248.016 47.7742C248.378 47.8509 248.688 47.9521 248.946 48.0778C249.204 48.2035 249.415 48.3516 249.579 48.522C249.743 48.6904 249.863 48.88 249.94 49.0909C250.019 49.3019 250.059 49.532 250.062 49.7813C250.059 50.2117 249.952 50.576 249.739 50.8743C249.526 51.1726 249.221 51.3995 248.825 51.5551C248.43 51.7106 247.956 51.7884 247.402 51.7884C246.834 51.7884 246.337 51.7042 245.913 51.5359C245.491 51.3676 245.163 51.1087 244.929 50.7593C244.696 50.4077 244.579 49.9581 244.577 49.4105H246.265C246.275 49.6108 246.325 49.7791 246.415 49.9155C246.504 50.0519 246.63 50.1552 246.792 50.2255C246.956 50.2958 247.151 50.331 247.377 50.331C247.567 50.331 247.725 50.3076 247.853 50.2607C247.981 50.2138 248.078 50.1488 248.144 50.0657C248.21 49.9826 248.244 49.8878 248.246 49.7813C248.244 49.6811 248.211 49.5938 248.147 49.5192C248.085 49.4425 247.983 49.3743 247.84 49.3147C247.698 49.2529 247.505 49.1953 247.262 49.1421L246.61 49.0014C246.03 48.8757 245.573 48.6659 245.239 48.3718C244.906 48.0757 244.741 47.6719 244.743 47.1605C244.741 46.7451 244.852 46.3818 245.076 46.0707C245.302 45.7575 245.614 45.5135 246.012 45.3388C246.413 45.1641 246.872 45.0767 247.39 45.0767C247.918 45.0767 248.375 45.1651 248.761 45.342C249.146 45.5188 249.444 45.7681 249.652 46.0899C249.863 46.4095 249.97 46.7834 249.972 47.2117H248.272Z" fill="white"/>
<path d="M33 4.52368L27.6904 0.111572L13.6677 12.0873C10.3549 14.8606 3.21198 20.8863 1.14261 22.8024C-0.926764 24.7185 0.280369 27.3826 1.14261 28.4751L27.8266 51.0399L32.7277 46.7538C25.0583 40.2828 9.55622 27.1893 8.90274 26.5842C8.24925 25.9791 8.44893 25.2396 8.63045 24.9454L33 4.52368Z" fill="#D9D9D9"/>
<path d="M36 14.833L41.3938 10.2974C45.4891 13.4546 54.2791 20.3826 56.6764 22.8372C59.0736 25.2918 57.6752 28.3956 56.6764 29.6407L41.5437 41.7803L36.1498 37.2446C39.9954 34.0875 47.8664 27.613 48.5856 26.9727C49.3048 26.3323 49.085 25.7276 48.8853 25.5052L36 14.833Z" fill="#D9D9D9"/>
</svg>
