<svg width="32" height="32" viewBox="0 0 32 32" fill="none" xmlns="http://www.w3.org/2000/svg">
<path d="M23.4146 28.8V3.2C24.2732 3.2 25.0084 3.5136 25.6203 4.1408C26.2322 4.768 26.5376 5.52107 26.5366 6.4V25.6C26.5366 26.48 26.2312 27.2336 25.6203 27.8608C25.0094 28.488 24.2742 28.8011 23.4146 28.8ZM3.12195 32C2.26341 32 1.52872 31.6869 0.917854 31.0608C0.306992 30.4347 0.00104065 29.6811 0 28.8V3.2C0 2.32 0.305951 1.56693 0.917854 0.9408C1.52976 0.314667 2.26446 0.00106667 3.12195 0H17.1707C18.0293 0 18.7645 0.3136 19.3764 0.9408C19.9883 1.568 20.2937 2.32107 20.2927 3.2V28.8C20.2927 29.68 19.9873 30.4336 19.3764 31.0608C18.7655 31.688 18.0303 32.0011 17.1707 32H3.12195ZM29.6585 25.6V6.4C30.3089 6.4 30.862 6.6336 31.3179 7.1008C31.7737 7.568 32.001 8.1344 32 8.8V23.2C32 23.8667 31.7726 24.4336 31.3179 24.9008C30.8631 25.368 30.31 25.6011 29.6585 25.6ZM3.12195 28.8H17.1707V3.2H3.12195V28.8Z" fill="#00D073"/>
</svg>
