<svg width="33" height="28" viewBox="0 0 33 28" fill="none" xmlns="http://www.w3.org/2000/svg">
<path d="M17.271 25.8332H3.396C2.78268 25.8332 2.19449 25.5895 1.76081 25.1559C1.32713 24.7222 1.0835 24.134 1.0835 23.5207V3.479C1.0835 2.86569 1.32713 2.2775 1.76081 1.84382C2.19449 1.41014 2.78268 1.1665 3.396 1.1665H29.6043C30.2176 1.1665 30.8058 1.41014 31.2395 1.84382C31.6732 2.2775 31.9168 2.86569 31.9168 3.479V14.2252" stroke="#00D073" stroke-width="2" stroke-linecap="round" stroke-linejoin="round"/>
<path d="M1.0835 3.479C1.0835 2.86569 1.32713 2.2775 1.76081 1.84382C2.19449 1.41014 2.78268 1.1665 3.396 1.1665H29.6043C30.2176 1.1665 30.8058 1.41014 31.2395 1.84382C31.6732 2.2775 31.9168 2.86569 31.9168 3.479V10.4165H1.0835V3.479Z" stroke="#00D073" stroke-width="2"/>
<path d="M22.667 21.979H31.917M27.292 17.354V26.604" stroke="#00D073" stroke-width="2" stroke-linecap="round" stroke-linejoin="round"/>
<path d="M4.16667 5.79134C4.16667 4.9399 4.85689 4.24967 5.70833 4.24967C6.55977 4.24967 7.25 4.9399 7.25 5.79134C7.25 6.64278 6.55977 7.33301 5.70833 7.33301C4.85689 7.33301 4.16667 6.64278 4.16667 5.79134Z" fill="#00D073"/>
<path d="M8.79167 5.79134C8.79167 4.9399 9.48189 4.24967 10.3333 4.24967C11.1848 4.24967 11.875 4.9399 11.875 5.79134C11.875 6.64278 11.1848 7.33301 10.3333 7.33301C9.48189 7.33301 8.79167 6.64278 8.79167 5.79134Z" fill="#00D073"/>
</svg>
