<svg width="37" height="37" viewBox="0 0 37 37" fill="none" xmlns="http://www.w3.org/2000/svg">
<path d="M27.75 4.625H4.625V30.0625H13.875V32.375H2.3125V2.3125H30.0625V13.875H27.75V4.625ZM11.5625 11.5625H25.4352V9.25H11.5625V11.5625ZM6.9375 11.5625V9.25H9.25V11.5625H6.9375ZM11.5625 18.5V16.1875H25.4375V18.5H11.5625ZM6.9375 18.5V16.1875H9.25V18.5H6.9375ZM11.5625 25.4375V23.125H18.5V25.4375H11.5625ZM6.9375 25.4375V23.125H9.25V25.4375H6.9375ZM17.3484 28.6981L29.8613 16.1875L34.6875 21.0137L22.1769 33.5243L16.1875 34.6875L17.3484 28.6981Z" fill="#00D073"/>
</svg>
